<?xml version="1.0" encoding="UTF-8"?>
<svg width="48px" height="48px" viewBox="0 0 48 48" version="1.1" xmlns="http://www.w3.org/2000/svg" xmlns:xlink="http://www.w3.org/1999/xlink">
    <title>顶层棱块3</title>
    <g id="顶层棱块3" stroke="none" stroke-width="1" fill="none" fill-rule="evenodd">
        <g id="边框" transform="translate(7, 7)" stroke="#000000" stroke-linecap="square">
            <line x1="0.5" y1="0.5" x2="33.5" y2="0.5" id="Line"></line>
            <line x1="0.5" y1="11.5" x2="33.5" y2="11.5" id="Line-Copy"></line>
            <line x1="0.5" y1="22.5" x2="33.5" y2="22.5" id="Line-Copy-2"></line>
            <line x1="0.5" y1="33.5" x2="33.5" y2="33.5" id="Line-Copy-3"></line>
            <line x1="0.5" y1="0.5" x2="0.5" y2="33.5" id="Line-Copy-3"></line>
            <line x1="11.5" y1="0.5" x2="11.5" y2="33.5" id="Line-Copy-4"></line>
            <line x1="22.5" y1="0.5" x2="22.5" y2="33.5" id="Line-Copy-5"></line>
            <line x1="33.5" y1="0.5" x2="33.5" y2="33.5" id="Line-Copy-6"></line>
        </g>
        <g id="Group" transform="translate(12, 22)" stroke="#000000">
            <line x1="12" y1="-8" x2="12" y2="12" id="Line-2-Copy" stroke-linecap="round" transform="translate(12, 2) rotate(-90) translate(-12, -2)"></line>
            <path d="M1,1.70710678 L1.79289322,2.5 L0.207106781,2.5 L1,1.70710678 Z" id="Triangle-Copy-7" fill="#000000" transform="translate(1, 2) scale(-1, 1) rotate(-270) translate(-1, -2)"></path>
            <path d="M23,1.70710678 L23.7928932,2.5 L22.2071068,2.5 L23,1.70710678 Z" id="Triangle-Copy-8" fill="#000000" transform="translate(23, 2) rotate(-270) translate(-23, -2)"></path>
        </g>
        <g id="Group" transform="translate(24, 24) rotate(-270) translate(-24, -24)translate(12, 22)" stroke="#000000">
            <line x1="12" y1="-8" x2="12" y2="12" id="Line-2-Copy" stroke-linecap="round" transform="translate(12, 2) rotate(-90) translate(-12, -2)"></line>
            <path d="M1,1.70710678 L1.79289322,2.5 L0.207106781,2.5 L1,1.70710678 Z" id="Triangle-Copy-7" fill="#000000" transform="translate(1, 2) scale(-1, 1) rotate(-270) translate(-1, -2)"></path>
            <path d="M23,1.70710678 L23.7928932,2.5 L22.2071068,2.5 L23,1.70710678 Z" id="Triangle-Copy-8" fill="#000000" transform="translate(23, 2) rotate(-270) translate(-23, -2)"></path>
        </g>
    </g>
</svg>