<?xml version="1.0" encoding="UTF-8"?>
<svg width="48px" height="48px" viewBox="0 0 48 48" version="1.1" xmlns="http://www.w3.org/2000/svg" xmlns:xlink="http://www.w3.org/1999/xlink">
    <title>顶面2-2</title>
    <g id="顶面2-2" stroke="none" stroke-width="1" fill="none" fill-rule="evenodd">
        <g id="边框" transform="translate(7, 7)" stroke="#000000" stroke-linecap="square">
            <line x1="0.5" y1="0.5" x2="33.5" y2="0.5" id="Line"></line>
            <line x1="0.5" y1="11.5" x2="33.5" y2="11.5" id="Line-Copy"></line>
            <line x1="0.5" y1="22.5" x2="33.5" y2="22.5" id="Line-Copy-2"></line>
            <line x1="0.5" y1="33.5" x2="33.5" y2="33.5" id="Line-Copy-3"></line>
            <line x1="0.5" y1="0.5" x2="0.5" y2="33.5" id="Line-Copy-3"></line>
            <line x1="11.5" y1="0.5" x2="11.5" y2="33.5" id="Line-Copy-4"></line>
            <line x1="22.5" y1="0.5" x2="22.5" y2="33.5" id="Line-Copy-5"></line>
            <line x1="33.5" y1="0.5" x2="33.5" y2="33.5" id="Line-Copy-6"></line>
        </g>
        <line x1="35" y1="38" x2="35" y2="47" id="D3" stroke="#000000" stroke-linecap="round" transform="translate(35, 42.5) rotate(-90) translate(-35, -42.5)"></line>
        <line x1="5.5" y1="8.5" x2="5.5" y2="17.5" id="L1" stroke="#000000" stroke-linecap="round"></line>
        <rect id="8" fill="#000000" x="20" y="31" width="8" height="8"></rect>
        <rect id="7" fill="#000000" x="9" y="31" width="8" height="8"></rect>
        <rect id="6" fill="#000000" x="31" y="20" width="8" height="8"></rect>
        <rect id="5" fill="#000000" x="20" y="20" width="8" height="8"></rect>
        <rect id="4" fill="#000000" x="9" y="20" width="8" height="8"></rect>
        <rect id="3" fill="#000000" x="31" y="9" width="8" height="8"></rect>
        <rect id="2" fill="#000000" x="20" y="9" width="8" height="8"></rect>
    </g>
</svg>